<svg xmlns="http://www.w3.org/2000/svg" width="2000" height="2000" viewBox="0 0 2000 2000">
  <metadata><?xpacket begin="﻿" id="W5M0MpCehiHzreSzNTczkc9d"?>
<x:xmpmeta xmlns:x="adobe:ns:meta/" x:xmptk="Adobe XMP Core 5.6-c138 79.159824, 2016/09/14-01:09:01        ">
   <rdf:RDF xmlns:rdf="http://www.w3.org/1999/02/22-rdf-syntax-ns#">
      <rdf:Description rdf:about=""/>
   </rdf:RDF>
</x:xmpmeta>
                                                                                                    
                                                                                                    
                                                                                                    
                                                                                                    
                                                                                                    
                                                                                                    
                                                                                                    
                                                                                                    
                                                                                                    
                                                                                                    
                                                                                                    
                                                                                                    
                                                                                                    
                                                                                                    
                                                                                                    
                                                                                                    
                                                                                                    
                                                                                                    
                                                                                                    
                                                                                                    
                           
<?xpacket end="w"?></metadata>
<defs>
    <style>
      .cls-1, .cls-2 {
        fill: #112363;
      }

      .cls-2 {
        fill-rule: evenodd;
      }
    </style>
  </defs>
  <rect class="cls-1" x="446" y="106" width="255.219" height="255.188"/>
  <rect id="Rectangle_1_copy" data-name="Rectangle 1 copy" class="cls-1" x="792" y="106" width="255.22" height="255.188"/>
  <rect id="Rectangle_1_copy_2" data-name="Rectangle 1 copy 2" class="cls-1" x="446" y="452" width="255.219" height="255.219"/>
  <rect id="Rectangle_1_copy_3" data-name="Rectangle 1 copy 3" class="cls-1" x="792" y="452" width="255.22" height="255.219"/>
  <rect class="cls-1" x="446" y="799.844" width="255.219" height="255.156"/>
  <rect id="Rectangle_1_copy-2" data-name="Rectangle 1 copy" class="cls-1" x="792" y="799.844" width="255.22" height="255.156"/>
  <rect class="cls-1" x="1139.84" y="106" width="255.16" height="255.188"/>
  <rect id="Rectangle_1_copy_2-2" data-name="Rectangle 1 copy 2" class="cls-1" x="1139.84" y="452" width="255.16" height="255.219"/>
  <rect class="cls-1" x="1139.84" y="799.844" width="255.16" height="255.156"/>
  <path class="cls-2" d="M1820,1602v323l-318-270s-62-17-74-13-716,0-716,0-54.5,8.5-110-43-401-400-401-400-70-62,7-125,147.5,36.5,154,48,287,260,287,260h555s43.7-25.65,1-47c-4-2-380,0-380,0s-139,21-139-83,82.5-93,124-93h531s22-2,77,49S1820,1602,1820,1602Z"/>
</svg>
