<svg xmlns="http://www.w3.org/2000/svg" width="2000" height="2000" viewBox="0 0 2000 2000">
  <metadata><?xpacket begin="﻿" id="W5M0MpCehiHzreSzNTczkc9d"?>
<x:xmpmeta xmlns:x="adobe:ns:meta/" x:xmptk="Adobe XMP Core 5.6-c138 79.159824, 2016/09/14-01:09:01        ">
   <rdf:RDF xmlns:rdf="http://www.w3.org/1999/02/22-rdf-syntax-ns#">
      <rdf:Description rdf:about=""/>
   </rdf:RDF>
</x:xmpmeta>
                                                                                                    
                                                                                                    
                                                                                                    
                                                                                                    
                                                                                                    
                                                                                                    
                                                                                                    
                                                                                                    
                                                                                                    
                                                                                                    
                                                                                                    
                                                                                                    
                                                                                                    
                                                                                                    
                                                                                                    
                                                                                                    
                                                                                                    
                                                                                                    
                                                                                                    
                                                                                                    
                           
<?xpacket end="w"?></metadata>
<defs>
    <style>
      .cls-1 {
        fill: #112363;
        fill-rule: evenodd;
      }
    </style>
  </defs>
  <path class="cls-1" d="M0,0H256.579V256.579H0V0Z"/>
  <path id="Rectangle_1_copy" data-name="Rectangle 1 copy" class="cls-1" d="M347.861,0H604.44V256.579H347.861V0Z"/>
  <path id="Rectangle_1_copy_2" data-name="Rectangle 1 copy 2" class="cls-1" d="M0,347.861H256.579V604.44H0V347.861Z"/>
  <path id="Rectangle_1_copy_3" data-name="Rectangle 1 copy 3" class="cls-1" d="M347.861,347.861H604.44V604.44H347.861V347.861Z"/>
  <path class="cls-1" d="M697.56,0H954.139V256.579H697.56V0Z"/>
  <path id="Rectangle_1_copy-2" data-name="Rectangle 1 copy" class="cls-1" d="M1045.42,0H1302V256.579H1045.42V0Z"/>
  <path id="Rectangle_1_copy_2-2" data-name="Rectangle 1 copy 2" class="cls-1" d="M697.56,347.861H954.139V604.44H697.56V347.861Z"/>
  <path id="Rectangle_1_copy_3-2" data-name="Rectangle 1 copy 3" class="cls-1" d="M1045.42,347.861H1302V604.44H1045.42V347.861Z"/>
  <path class="cls-1" d="M1395.56,0h256.58V256.579H1395.56V0Z"/>
  <path id="Rectangle_1_copy-3" data-name="Rectangle 1 copy" class="cls-1" d="M1743.42,0H2000V256.579H1743.42V0Z"/>
  <path id="Rectangle_1_copy_2-3" data-name="Rectangle 1 copy 2" class="cls-1" d="M1395.56,347.861h256.58V604.44H1395.56V347.861Z"/>
  <path id="Rectangle_1_copy_3-3" data-name="Rectangle 1 copy 3" class="cls-1" d="M1743.42,347.861H2000V604.44H1743.42V347.861Z"/>
  <path class="cls-1" d="M1395.56,1396h256.58v256.58H1395.56V1396Z"/>
  <path id="Rectangle_1_copy-4" data-name="Rectangle 1 copy" class="cls-1" d="M1743.42,1396H2000v256.58H1743.42V1396Z"/>
  <path id="Rectangle_1_copy_2-4" data-name="Rectangle 1 copy 2" class="cls-1" d="M1395.56,1743.86h256.58v256.58H1395.56V1743.86Z"/>
  <path id="Rectangle_1_copy_3-4" data-name="Rectangle 1 copy 3" class="cls-1" d="M1743.42,1743.86H2000v256.58H1743.42V1743.86Z"/>
  <path class="cls-1" d="M1395.56,698h256.58V954.579H1395.56V698Z"/>
  <path id="Rectangle_1_copy-5" data-name="Rectangle 1 copy" class="cls-1" d="M1743.42,698H2000V954.579H1743.42V698Z"/>
  <path id="Rectangle_1_copy_2-5" data-name="Rectangle 1 copy 2" class="cls-1" d="M1395.56,1045.86h256.58v256.58H1395.56V1045.86Z"/>
  <path id="Rectangle_1_copy_3-5" data-name="Rectangle 1 copy 3" class="cls-1" d="M1743.42,1045.86H2000v256.58H1743.42V1045.86Z"/>
  <path class="cls-1" d="M-0.44,1396H256.139v256.58H-0.44V1396Z"/>
  <path id="Rectangle_1_copy-6" data-name="Rectangle 1 copy" class="cls-1" d="M347.421,1396H604v256.58H347.421V1396Z"/>
  <path id="Rectangle_1_copy_2-6" data-name="Rectangle 1 copy 2" class="cls-1" d="M-0.44,1743.86H256.139v256.58H-0.44V1743.86Z"/>
  <path id="Rectangle_1_copy_3-6" data-name="Rectangle 1 copy 3" class="cls-1" d="M347.421,1743.86H604v256.58H347.421V1743.86Z"/>
  <path class="cls-1" d="M697.56,1396H954.139v256.58H697.56V1396Z"/>
  <path id="Rectangle_1_copy-7" data-name="Rectangle 1 copy" class="cls-1" d="M1045.42,1396H1302v256.58H1045.42V1396Z"/>
  <path id="Rectangle_1_copy_2-7" data-name="Rectangle 1 copy 2" class="cls-1" d="M697.56,1743.86H954.139v256.58H697.56V1743.86Z"/>
  <path id="Rectangle_1_copy_3-7" data-name="Rectangle 1 copy 3" class="cls-1" d="M1045.42,1743.86H1302v256.58H1045.42V1743.86Z"/>
  <path class="cls-1" d="M0,697.56H256.579V954.139H0V697.56Z"/>
  <path id="Rectangle_1_copy-8" data-name="Rectangle 1 copy" class="cls-1" d="M347.861,697.56H604.44V954.139H347.861V697.56Z"/>
  <path id="Rectangle_1_copy_2-8" data-name="Rectangle 1 copy 2" class="cls-1" d="M0,1045.42H256.579V1302H0V1045.42Z"/>
  <path id="Rectangle_1_copy_3-8" data-name="Rectangle 1 copy 3" class="cls-1" d="M347.861,1045.42H604.44V1302H347.861V1045.42Z"/>
  <path class="cls-1" d="M697.56,697.56H954.139V954.139H697.56V697.56Z"/>
  <path id="Rectangle_1_copy-9" data-name="Rectangle 1 copy" class="cls-1" d="M1045.42,697.56H1302V954.139H1045.42V697.56Z"/>
  <path id="Rectangle_1_copy_2-9" data-name="Rectangle 1 copy 2" class="cls-1" d="M697.56,1045.42H954.139V1302H697.56V1045.42Z"/>
  <path id="Rectangle_1_copy_3-9" data-name="Rectangle 1 copy 3" class="cls-1" d="M1045.42,1045.42H1302V1302H1045.42V1045.42Z"/>
</svg>
