<svg xmlns="http://www.w3.org/2000/svg" width="2000" height="2000" viewBox="0 0 2000 2000">
  <metadata><?xpacket begin="﻿" id="W5M0MpCehiHzreSzNTczkc9d"?>
<x:xmpmeta xmlns:x="adobe:ns:meta/" x:xmptk="Adobe XMP Core 5.6-c138 79.159824, 2016/09/14-01:09:01        ">
   <rdf:RDF xmlns:rdf="http://www.w3.org/1999/02/22-rdf-syntax-ns#">
      <rdf:Description rdf:about=""/>
   </rdf:RDF>
</x:xmpmeta>
                                                                                                    
                                                                                                    
                                                                                                    
                                                                                                    
                                                                                                    
                                                                                                    
                                                                                                    
                                                                                                    
                                                                                                    
                                                                                                    
                                                                                                    
                                                                                                    
                                                                                                    
                                                                                                    
                                                                                                    
                                                                                                    
                                                                                                    
                                                                                                    
                                                                                                    
                                                                                                    
                           
<?xpacket end="w"?></metadata>
<defs>
    <style>
      .cls-1, .cls-2 {
        fill: #112363;
      }

      .cls-1 {
        fill-rule: evenodd;
      }
    </style>
  </defs>
  <path class="cls-1" d="M0.371,0H218.994V218.686H0.371V0Z"/>
  <path id="Rectangle_1_copy" data-name="Rectangle 1 copy" class="cls-1" d="M296.788,0H515.411V218.686H296.788V0Z"/>
  <path id="Rectangle_1_copy_2" data-name="Rectangle 1 copy 2" class="cls-1" d="M0.371,296.5H218.994V515.187H0.371V296.5Z"/>
  <path id="Rectangle_1_copy_3" data-name="Rectangle 1 copy 3" class="cls-1" d="M296.788,296.5H515.411V515.187H296.788V296.5Z"/>
  <rect class="cls-2" x="594.75" width="218.594" height="218.688"/>
  <path id="Rectangle_1_copy-2" data-name="Rectangle 1 copy" class="cls-1" d="M891.138,0H1109.76V218.686H891.138V0Z"/>
  <rect id="Rectangle_1_copy_2-2" data-name="Rectangle 1 copy 2" class="cls-2" x="594.75" y="296.5" width="218.594" height="218.688"/>
  <path id="Rectangle_1_copy_3-2" data-name="Rectangle 1 copy 3" class="cls-1" d="M891.138,296.5H1109.76V515.187H891.138V296.5Z"/>
  <path class="cls-1" d="M1189.48,0H1408.1V218.686H1189.48V0Z"/>
  <path id="Rectangle_1_copy-3" data-name="Rectangle 1 copy" class="cls-1" d="M1485.89,0h218.63V218.686H1485.89V0Z"/>
  <path id="Rectangle_1_copy_2-3" data-name="Rectangle 1 copy 2" class="cls-1" d="M1189.48,296.5H1408.1V515.187H1189.48V296.5Z"/>
  <path id="Rectangle_1_copy_3-3" data-name="Rectangle 1 copy 3" class="cls-1" d="M1485.89,296.5h218.63V515.187H1485.89V296.5Z"/>
  <path class="cls-1" d="M1189.48,1189.81H1408.1v218.72H1189.48V1189.81Z"/>
  <path id="Rectangle_1_copy-4" data-name="Rectangle 1 copy" class="cls-1" d="M1485.89,1189.81h218.63v218.72H1485.89V1189.81Z"/>
  <path id="Rectangle_1_copy_2-4" data-name="Rectangle 1 copy 2" class="cls-1" d="M1189.48,1486.31H1408.1V1705H1189.48V1486.31Z"/>
  <path id="Rectangle_1_copy_3-4" data-name="Rectangle 1 copy 3" class="cls-1" d="M1485.89,1486.31h218.63V1705H1485.89V1486.31Z"/>
  <path class="cls-1" d="M1189.48,594.923H1408.1V813.609H1189.48V594.923Z"/>
  <path id="Rectangle_1_copy-5" data-name="Rectangle 1 copy" class="cls-1" d="M1485.89,594.923h218.63V813.609H1485.89V594.923Z"/>
  <path id="Rectangle_1_copy_2-5" data-name="Rectangle 1 copy 2" class="cls-1" d="M1189.48,891.425H1408.1V1110.08H1189.48V891.425Z"/>
  <path id="Rectangle_1_copy_3-5" data-name="Rectangle 1 copy 3" class="cls-1" d="M1485.89,891.425h218.63V1110.08H1485.89V891.425Z"/>
  <path class="cls-1" d="M0,1189.81H218.624v218.72H0V1189.81Z"/>
  <path id="Rectangle_1_copy-6" data-name="Rectangle 1 copy" class="cls-1" d="M296.383,1189.81H515.041v218.72H296.383V1189.81Z"/>
  <path id="Rectangle_1_copy_2-6" data-name="Rectangle 1 copy 2" class="cls-1" d="M0,1486.31H218.624V1705H0V1486.31Z"/>
  <path id="Rectangle_1_copy_3-6" data-name="Rectangle 1 copy 3" class="cls-1" d="M296.383,1486.31H515.041V1705H296.383V1486.31Z"/>
  <rect class="cls-2" x="594.75" y="1189.81" width="218.594" height="218.72"/>
  <path id="Rectangle_1_copy-7" data-name="Rectangle 1 copy" class="cls-1" d="M891.138,1189.81H1109.76v218.72H891.138V1189.81Z"/>
  <rect id="Rectangle_1_copy_2-7" data-name="Rectangle 1 copy 2" class="cls-2" x="594.75" y="1486.31" width="218.594" height="218.69"/>
  <path id="Rectangle_1_copy_3-7" data-name="Rectangle 1 copy 3" class="cls-1" d="M891.138,1486.31H1109.76V1705H891.138V1486.31Z"/>
  <path class="cls-1" d="M0.371,594.553H218.994V813.205H0.371V594.553Z"/>
  <path id="Rectangle_1_copy-8" data-name="Rectangle 1 copy" class="cls-1" d="M296.788,594.553H515.411V813.205H296.788V594.553Z"/>
  <path id="Rectangle_1_copy_2-8" data-name="Rectangle 1 copy 2" class="cls-1" d="M0.371,891.02H218.994v218.69H0.371V891.02Z"/>
  <path id="Rectangle_1_copy_3-8" data-name="Rectangle 1 copy 3" class="cls-1" d="M296.788,891.02H515.411v218.69H296.788V891.02Z"/>
  <path class="cls-1" d="M594.754,594.553h218.59V813.205H594.754V594.553Z"/>
  <path id="Rectangle_1_copy-9" data-name="Rectangle 1 copy" class="cls-1" d="M891.138,594.553H1109.76V813.205H891.138V594.553Z"/>
  <path id="Rectangle_1_copy_2-9" data-name="Rectangle 1 copy 2" class="cls-1" d="M594.754,891.02h218.59v218.69H594.754V891.02Z"/>
  <path id="Rectangle_1_copy_3-9" data-name="Rectangle 1 copy 3" class="cls-1" d="M891.138,891.02H1109.76v218.69H891.138V891.02Z"/>
  <rect id="Rectangle_1_copy_9" data-name="Rectangle 1 copy 9" class="cls-2" x="1782.38" width="218.62" height="218.688"/>
  <rect id="Rectangle_1_copy_8" data-name="Rectangle 1 copy 8" class="cls-2" x="1782.38" y="296.5" width="218.62" height="218.688"/>
  <rect id="Rectangle_1_copy_7" data-name="Rectangle 1 copy 7" class="cls-2" x="1782.38" y="1189.81" width="218.62" height="218.72"/>
  <rect id="Rectangle_1_copy_6" data-name="Rectangle 1 copy 6" class="cls-2" x="1782.38" y="1486.31" width="218.62" height="218.69"/>
  <path id="Rectangle_1_copy_5" data-name="Rectangle 1 copy 5" class="cls-1" d="M1782.38,594.923H2001V813.609H1782.38V594.923Z"/>
  <path id="Rectangle_1_copy_4" data-name="Rectangle 1 copy 4" class="cls-1" d="M1782.38,891.425H2001V1110.08H1782.38V891.425Z"/>
  <path id="Rectangle_1_copy_16" data-name="Rectangle 1 copy 16" class="cls-1" d="M1189.48,1781.31H1408.1V2000H1189.48V1781.31Z"/>
  <path id="Rectangle_1_copy_15" data-name="Rectangle 1 copy 15" class="cls-1" d="M1485.89,1781.31h218.63V2000H1485.89V1781.31Z"/>
  <path id="Rectangle_1_copy_14" data-name="Rectangle 1 copy 14" class="cls-1" d="M0,1781.31H218.624V2000H0V1781.31Z"/>
  <path id="Rectangle_1_copy_13" data-name="Rectangle 1 copy 13" class="cls-1" d="M296.383,1781.31H515.041V2000H296.383V1781.31Z"/>
  <rect id="Rectangle_1_copy_12" data-name="Rectangle 1 copy 12" class="cls-2" x="594.75" y="1781.31" width="218.594" height="218.69"/>
  <path id="Rectangle_1_copy_11" data-name="Rectangle 1 copy 11" class="cls-1" d="M891.138,1781.31H1109.76V2000H891.138V1781.31Z"/>
  <rect id="Rectangle_1_copy_10" data-name="Rectangle 1 copy 10" class="cls-2" x="1782.38" y="1781.31" width="218.62" height="218.69"/>
</svg>
