<svg xmlns="http://www.w3.org/2000/svg" width="2000" height="2000" viewBox="0 0 2000 2000">
  <metadata><?xpacket begin="﻿" id="W5M0MpCehiHzreSzNTczkc9d"?>
<x:xmpmeta xmlns:x="adobe:ns:meta/" x:xmptk="Adobe XMP Core 5.6-c138 79.159824, 2016/09/14-01:09:01        ">
   <rdf:RDF xmlns:rdf="http://www.w3.org/1999/02/22-rdf-syntax-ns#">
      <rdf:Description rdf:about=""/>
   </rdf:RDF>
</x:xmpmeta>
                                                                                                    
                                                                                                    
                                                                                                    
                                                                                                    
                                                                                                    
                                                                                                    
                                                                                                    
                                                                                                    
                                                                                                    
                                                                                                    
                                                                                                    
                                                                                                    
                                                                                                    
                                                                                                    
                                                                                                    
                                                                                                    
                                                                                                    
                                                                                                    
                                                                                                    
                                                                                                    
                           
<?xpacket end="w"?></metadata>
<defs>
    <style>
      .cls-1 {
        fill: #112363;
        fill-rule: evenodd;
      }
    </style>
  </defs>
  <path class="cls-1" d="M52,283H307.207V538.2H52V283Z"/>
  <path id="Rectangle_1_copy" data-name="Rectangle 1 copy" class="cls-1" d="M398,283H653.21V538.2H398V283Z"/>
  <path id="Rectangle_1_copy_2" data-name="Rectangle 1 copy 2" class="cls-1" d="M52,629.006H307.207v255.2H52v-255.2Z"/>
  <path id="Rectangle_1_copy_3" data-name="Rectangle 1 copy 3" class="cls-1" d="M398,629.006H653.21v255.2H398v-255.2Z"/>
  <path class="cls-1" d="M52,976.835H307.207V1232H52V976.835Z"/>
  <path id="Rectangle_1_copy-2" data-name="Rectangle 1 copy" class="cls-1" d="M398,976.835H653.21V1232H398V976.835Z"/>
  <path class="cls-1" d="M745.83,283H1001V538.2H745.83V283Z"/>
  <path id="Rectangle_1_copy_2-2" data-name="Rectangle 1 copy 2" class="cls-1" d="M745.83,629.006H1001v255.2H745.83v-255.2Z"/>
  <path class="cls-1" d="M745.83,976.835H1001V1232H745.83V976.835Z"/>
  <path class="cls-1" d="M1142,82h654s-121.66,667.538-117,831c2.05,72.026-2.15,171.75,4,265,7.8,118.38,26,224,26,224l70,349s34.5,143-113,144-656-3-670,3-183.5,16.5-187,21-515,9.5-552-13-56.344-34.28-52-99c0.341-5.09,413-91,658-250,91.659-59.48,186.03-104.46,237-160,85.28-92.91,94-183,94-183s35.5-198,30-286-35-463-35-463Z"/>
</svg>
