<svg xmlns="http://www.w3.org/2000/svg" width="2000" height="2000" viewBox="0 0 2000 2000">
  <metadata><?xpacket begin="﻿" id="W5M0MpCehiHzreSzNTczkc9d"?>
<x:xmpmeta xmlns:x="adobe:ns:meta/" x:xmptk="Adobe XMP Core 5.6-c138 79.159824, 2016/09/14-01:09:01        ">
   <rdf:RDF xmlns:rdf="http://www.w3.org/1999/02/22-rdf-syntax-ns#">
      <rdf:Description rdf:about=""/>
   </rdf:RDF>
</x:xmpmeta>
                                                                                                    
                                                                                                    
                                                                                                    
                                                                                                    
                                                                                                    
                                                                                                    
                                                                                                    
                                                                                                    
                                                                                                    
                                                                                                    
                                                                                                    
                                                                                                    
                                                                                                    
                                                                                                    
                                                                                                    
                                                                                                    
                                                                                                    
                                                                                                    
                                                                                                    
                                                                                                    
                           
<?xpacket end="w"?></metadata>
<defs>
    <style>
      .cls-1, .cls-2 {
        fill: #112363;
      }

      .cls-1 {
        fill-rule: evenodd;
      }
    </style>
  </defs>
  <path class="cls-1" d="M1296,410L932,1419s244.87,47.16,445,165c4.64,2.73,376-1013,376-1013S1600,389,1296,410Z"/>
  <path class="cls-1" d="M1355,257s248.5,29.834,450,161c2.65,1.725,52-147,52-147s-36.39-152.43-183-197c-125-38-260,34-260,34Z"/>
  <path class="cls-1" d="M875,1570s233.91-21.73,453,164c2.75,2.33-20,45-20,45l-307,148L866,1620S868,1578,875,1570Z"/>
  <rect id="Rectangle_1_copy_6" data-name="Rectangle 1 copy 6" class="cls-2" x="195" y="151" width="454" height="454.438"/>
  <rect id="Rectangle_1_copy_5" data-name="Rectangle 1 copy 5" class="cls-2" x="195" y="767.156" width="454" height="454.504"/>
  <path id="Rectangle_1_copy_4" data-name="Rectangle 1 copy 4" class="cls-1" d="M195,1386.61H649V1841H195V1386.61ZM1298,410L934,1421s344.24,82.08,447,162c9,7,371-1014,371-1014S1593,392,1298,410Z"/>
</svg>
