<svg xmlns="http://www.w3.org/2000/svg" width="2000" height="2000" viewBox="0 0 2000 2000">
  <metadata><?xpacket begin="﻿" id="W5M0MpCehiHzreSzNTczkc9d"?>
<x:xmpmeta xmlns:x="adobe:ns:meta/" x:xmptk="Adobe XMP Core 5.6-c138 79.159824, 2016/09/14-01:09:01        ">
   <rdf:RDF xmlns:rdf="http://www.w3.org/1999/02/22-rdf-syntax-ns#">
      <rdf:Description rdf:about=""/>
   </rdf:RDF>
</x:xmpmeta>
                                                                                                    
                                                                                                    
                                                                                                    
                                                                                                    
                                                                                                    
                                                                                                    
                                                                                                    
                                                                                                    
                                                                                                    
                                                                                                    
                                                                                                    
                                                                                                    
                                                                                                    
                                                                                                    
                                                                                                    
                                                                                                    
                                                                                                    
                                                                                                    
                                                                                                    
                                                                                                    
                           
<?xpacket end="w"?></metadata>
<defs>
    <style>
      .cls-1 {
        fill: #112363;
        fill-rule: evenodd;
      }
    </style>
  </defs>
  <path class="cls-1" d="M550.992,1048l122.1,122.1L551.007,1292.18l-122.1-122.1Z"/>
  <path id="Rectangle_1_copy" data-name="Rectangle 1 copy" class="cls-1" d="M716.52,1213.53l122.1,122.1L716.535,1457.71l-122.1-122.1Z"/>
  <path id="Rectangle_1_copy_2" data-name="Rectangle 1 copy 2" class="cls-1" d="M385.463,1213.53l122.1,122.1-122.1,122.09-122.1-122.09Z"/>
  <path id="Rectangle_1_copy_3" data-name="Rectangle 1 copy 3" class="cls-1" d="M550.992,1379.06l122.1,122.1-122.1,122.09-122.1-122.09Z"/>
  <path class="cls-1" d="M219.053,1379.94l122.1,122.1L219.083,1624.11l-122.1-122.1Z"/>
  <path id="Rectangle_1_copy-2" data-name="Rectangle 1 copy" class="cls-1" d="M384.581,1545.47l122.1,122.1L384.611,1789.63l-122.1-122.09Z"/>
  <path class="cls-1" d="M882.931,1379.94L1005,1502.01,882.916,1624.09,760.848,1502.02Z"/>
  <path id="Rectangle_1_copy_2-2" data-name="Rectangle 1 copy 2" class="cls-1" d="M717.4,1545.47l122.068,122.07-122.1,122.09L595.3,1667.57Z"/>
  <path class="cls-1" d="M550.992,1711.88L673.06,1833.95,550.992,1956.01,428.924,1833.95Z"/>
  <path class="cls-1" d="M550.617,45L672.74,167.123,550.632,289.232,428.508,167.108Z"/>
  <path id="Rectangle_1_copy-3" data-name="Rectangle 1 copy" class="cls-1" d="M716.18,210.563L838.3,332.686,716.2,454.8,594.071,332.671Z"/>
  <path id="Rectangle_1_copy_2-3" data-name="Rectangle 1 copy 2" class="cls-1" d="M385.054,210.563L507.178,332.686,385.054,454.81,262.931,332.686Z"/>
  <path id="Rectangle_1_copy_3-2" data-name="Rectangle 1 copy 3" class="cls-1" d="M550.617,376.125L672.74,498.249,550.617,620.372,428.494,498.249Z"/>
  <path class="cls-1" d="M218.609,377.008L340.733,499.131,218.639,621.225,96.516,499.1Z"/>
  <path id="Rectangle_1_copy-4" data-name="Rectangle 1 copy" class="cls-1" d="M384.172,542.57L506.3,664.694,384.2,786.787,262.078,664.664Z"/>
  <path class="cls-1" d="M882.625,377.008L1004.72,499.1,882.61,621.21,760.516,499.116Z"/>
  <path id="Rectangle_1_copy_2-4" data-name="Rectangle 1 copy 2" class="cls-1" d="M717.062,542.57L839.155,664.664,717.032,786.787,594.938,664.694Z"/>
  <path class="cls-1" d="M550.617,709.015L672.71,831.109,550.617,953.2,428.523,831.109Z"/>
  <path class="cls-1" d="M1187,379s-126,142.748-126,630,73.07,551.29,75,565,69.94,238.43,404,258,343-189,343-189,17.42-127.85-13-231-59.26-388.4-59-406c1.6-106.471,71-379,71-379s69.84-282.889-65-344-278.38-120.3-534,11C1260.56,305.529,1187,379,1187,379Z"/>
</svg>
