<svg xmlns="http://www.w3.org/2000/svg" width="2000" height="2000" viewBox="0 0 2000 2000">
  <metadata><?xpacket begin="﻿" id="W5M0MpCehiHzreSzNTczkc9d"?>
<x:xmpmeta xmlns:x="adobe:ns:meta/" x:xmptk="Adobe XMP Core 5.6-c138 79.159824, 2016/09/14-01:09:01        ">
   <rdf:RDF xmlns:rdf="http://www.w3.org/1999/02/22-rdf-syntax-ns#">
      <rdf:Description rdf:about=""/>
   </rdf:RDF>
</x:xmpmeta>
                                                                                                    
                                                                                                    
                                                                                                    
                                                                                                    
                                                                                                    
                                                                                                    
                                                                                                    
                                                                                                    
                                                                                                    
                                                                                                    
                                                                                                    
                                                                                                    
                                                                                                    
                                                                                                    
                                                                                                    
                                                                                                    
                                                                                                    
                                                                                                    
                                                                                                    
                                                                                                    
                           
<?xpacket end="w"?></metadata>
<defs>
    <style>
      .cls-1 {
        fill: #112363;
        fill-rule: evenodd;
      }
    </style>
  </defs>
  <path id="Polygon_1" data-name="Polygon 1" class="cls-1" d="M722.957,724.4q276.558,1.6,553.113,0Q1136.405,963.11,999.514,1203.41,862.618,963.11,722.957,724.4Z"/>
  <path id="Polygon_1_copy" data-name="Polygon 1 copy" class="cls-1" d="M1276.01,652q-276.51-1.6-553.019,0Q862.629,413.3,999.5,172.992,1136.375,413.3,1276.01,652Z"/>
  <path id="Polygon_1_copy_3" data-name="Polygon 1 copy 3" class="cls-1" d="M319.436,1348.19q136.844,240.195,276.45,478.8-276.45-1.59-552.9,0Q182.593,1588.385,319.436,1348.19Z"/>
  <path id="Polygon_1_copy_2" data-name="Polygon 1 copy 2" class="cls-1" d="M658.533,1790.76q-136.819-240.165-276.4-478.73,276.44,1.575,552.878-.04Q795.387,1550.58,658.533,1790.76Z"/>
  <path id="Polygon_1_copy_3-2" data-name="Polygon 1 copy 3" class="cls-1" d="M1618.88,1312q-139.605,238.605-276.43,478.81Q1205.605,1550.6,1066,1311.99,1342.435,1313.58,1618.88,1312Z"/>
  <path id="Polygon_1_copy_2-2" data-name="Polygon 1 copy 2" class="cls-1" d="M1405.15,1826.95q139.575-238.575,276.39-478.74Q1818.385,1588.4,1958.01,1827,1681.575,1825.38,1405.15,1826.95Z"/>
  <path id="Polygon_1_copy_4" data-name="Polygon 1 copy 4" class="cls-1" d="M723.151,1826.95q139.577-238.575,276.387-478.74Q1136.386,1588.4,1276.01,1827,999.575,1825.38,723.151,1826.95Z"/>
  <path id="Polygon_1_copy_5" data-name="Polygon 1 copy 5" class="cls-1" d="M382.151,1239.95q139.576-238.575,276.387-478.737Q795.393,1001.4,935.012,1240,658.582,1238.38,382.151,1239.95Z"/>
  <path id="Polygon_1_copy_6" data-name="Polygon 1 copy 6" class="cls-1" d="M1067.15,1236.95q139.575-238.575,276.39-478.737Q1480.385,998.4,1620.01,1237,1343.575,1235.38,1067.15,1236.95Z"/>
</svg>
