<?xml version="1.0" encoding="utf-8"?>
<!-- Generator: Adobe Illustrator 22.1.0, SVG Export Plug-In . SVG Version: 6.00 Build 0)  -->
<svg version="1.1" id="Layer_1" xmlns="http://www.w3.org/2000/svg" xmlns:xlink="http://www.w3.org/1999/xlink" x="0px" y="0px"
	 viewBox="0 0 1634 555" style="enable-background:new 0 0 1634 555;" xml:space="preserve">
<style type="text/css">
	.st0{fill:#F4831F;}
	.st1{fill:url(#SVGID_1_);}
	.st2{opacity:0.53;fill:#93C83D;}
	.st3{fill:#CFDDF1;}
	.st4{fill:#E69724;}
	.st5{fill:url(#SVGID_2_);}
	.st6{fill:#F6901E;}
	.st7{fill:#F5AB1D;}
	.st8{fill:url(#SVGID_3_);}
	.st9{fill:url(#SVGID_4_);}
	.st10{opacity:0.62;fill:#93C83D;}
</style>
<polygon class="st0" points="302.7,403.5 318.5,382.7 302.7,361.6 290.1,382.7 "/>
<polygon class="st0" points="302.7,255.4 292.5,271 302.7,279.5 309.5,267.5 "/>
<linearGradient id="SVGID_1_" gradientUnits="userSpaceOnUse" x1="404.4295" y1="265.5396" x2="505.0356" y2="52.0081">
	<stop  offset="0" style="stop-color:#4C9443"/>
	<stop  offset="1" style="stop-color:#0B6A37"/>
</linearGradient>
<path class="st1" d="M401.7,259.6c35.6-32.7,50.3-89.4,49.7-163.8c-4.1-60.5,73.8-55.1,54.4,27.1C493.2,175.7,469.7,225,401.7,259.6
	z"/>
<path class="st2" d="M460.5,63.2c19.5-2.7,41.9,19,30.4,67.5c-11.6,48.7-32.4,94.3-88.6,128.2c-0.2,0.2-0.5,0.5-0.7,0.7
	c68-34.6,91.5-83.9,104.1-136.8C520.3,60.8,479.7,42.5,460.5,63.2z"/>
<path class="st3" d="M722.4,232.2v85.9h-6.6v-85.9H722.4z"/>
<path class="st3" d="M749.6,318.1v-85.9h9.8c13.4,20.6,44.8,68.6,50.2,77.9h0.1c-0.7-12.4-0.6-25-0.6-39v-38.9h6.8v85.9h-9.1
	c-12.8-19.9-44.7-69.8-50.8-79.3h-0.1c0.6,11.3,0.5,23.8,0.5,39.4v39.9H749.6z"/>
<path class="st3" d="M843,232.2h28.5c23.6,0,39.9,16.4,39.9,42.2c0,25.7-16,43.7-40,43.7H843V232.2z M849.6,312h20.7
	c22.7,0,33.9-16,33.9-37.2c0-18.9-10.1-36.5-33.9-36.5h-20.7V312z"/>
<path class="st3" d="M938.7,232.2v85.9h-6.6v-85.9H938.7z"/>
<path class="st3" d="M973.8,288.4l-10.9,29.7h-6.8l31.5-85.9h7.9l32.9,85.9h-7.2l-11.2-29.7H973.8z M1007.8,282.3
	c-9.6-25.5-14.5-37.8-16.2-43.6h-0.1c-2.1,6.5-7.6,21.7-15.3,43.6H1007.8z"/>
<path class="st3" d="M1045.5,318.1v-85.9h9.8c13.4,20.6,44.8,68.6,50.2,77.9h0.1c-0.7-12.4-0.6-25-0.6-39v-38.9h6.8v85.9h-9.1
	c-12.8-19.9-44.7-69.8-50.8-79.3h-0.1c0.6,11.3,0.5,23.8,0.5,39.4v39.9H1045.5z"/>
<path class="st4" d="M1134.6,230.5h17.6l13.7,53.5h0.3v-53.5h12.5v89.4h-14.4l-16.9-65.3h-0.3v65.3h-12.5V230.5z"/>
<path class="st4" d="M1201.9,230.5h19l14.6,89.4h-14l-2.6-17.8v0.3h-16l-2.6,17.5h-13L1201.9,230.5z M1217.3,290.3l-6.3-44.2h-0.3
	l-6.1,44.2H1217.3z"/>
<path class="st4" d="M1249.3,243.3h-14.7v-12.8h43.4v12.8h-14.7v76.6h-14V243.3z"/>
<path class="st4" d="M1286.7,230.5h14v89.4h-14V230.5z"/>
<path class="st4" d="M1317.6,315.3c-3.7-3.9-5.5-9.5-5.5-16.6v-47c0-7.2,1.8-12.7,5.5-16.6c3.7-3.9,8.9-5.9,15.8-5.9
	s12.2,2,15.8,5.9c3.7,3.9,5.5,9.5,5.5,16.6v47c0,7.2-1.8,12.7-5.5,16.6c-3.7,3.9-8.9,5.9-15.8,5.9S1321.3,319.2,1317.6,315.3z
	 M1340.8,299.6v-48.8c0-5.9-2.4-8.8-7.3-8.8c-4.9,0-7.3,2.9-7.3,8.8v48.8c0,5.9,2.4,8.8,7.3,8.8
	C1338.3,308.4,1340.8,305.5,1340.8,299.6z"/>
<path class="st4" d="M1366.2,230.5h17.6l13.7,53.5h0.3v-53.5h12.5v89.4h-14.4l-16.9-65.3h-0.3v65.3h-12.5V230.5z"/>
<path class="st4" d="M1433.5,230.5h19l14.6,89.4h-14l-2.6-17.8v0.3h-16l-2.6,17.5h-13L1433.5,230.5z M1448.8,290.3l-6.3-44.2h-0.3
	l-6.1,44.2H1448.8z"/>
<path class="st4" d="M1475.8,230.5h14v76.6h23.1v12.8h-37.2V230.5z"/>
<path class="st4" d="M1524.4,315.4c-3.5-3.9-5.2-9.4-5.2-16.7v-5.1h13.3v6.1c0,5.8,2.4,8.7,7.3,8.7c2.4,0,4.2-0.7,5.4-2.1
	c1.2-1.4,1.9-3.7,1.9-6.8c0-3.7-0.9-7-2.6-9.9c-1.7-2.9-4.9-6.3-9.5-10.3c-5.8-5.1-9.8-9.7-12.1-13.9c-2.3-4.1-3.4-8.8-3.4-14
	c0-7.1,1.8-12.5,5.4-16.4c3.6-3.9,8.8-5.8,15.6-5.8c6.7,0,11.8,1.9,15.3,5.8c3.4,3.9,5.2,9.4,5.2,16.7v3.7h-13.3v-4.6
	c0-3.1-0.6-5.3-1.8-6.7c-1.2-1.4-2.9-2.1-5.2-2.1c-4.7,0-7,2.9-7,8.6c0,3.2,0.9,6.3,2.6,9.1c1.7,2.8,4.9,6.2,9.5,10.2
	c5.9,5.1,9.9,9.8,12.1,13.9c2.2,4.2,3.3,9.1,3.3,14.7c0,7.3-1.8,12.9-5.4,16.9c-3.6,3.9-8.9,5.9-15.8,5.9
	C1533.1,321.2,1527.9,319.2,1524.4,315.4z"/>
<linearGradient id="SVGID_2_" gradientUnits="userSpaceOnUse" x1="219.4421" y1="74.7624" x2="366.2449" y2="77.8422">
	<stop  offset="0" style="stop-color:#4C9443"/>
	<stop  offset="1" style="stop-color:#0B6A37"/>
</linearGradient>
<path class="st5" d="M354.7,128.3c3.1-70.3-57.7-80.5-82.3-45.1c-21.9,26.1-59.8-9.6-26.6-38.9C312.8-10.1,387,65.6,354.7,128.3z"/>
<g>
	<path class="st6" d="M239.6,219.1c-5.2,9.2-7.4,20.9-7.4,34.3c0.4,7.1,4.3,8,8.9,6c8.9-5.8,17.7-14.4,26.4-24.2L239.6,219.1z"/>
	<path class="st6" d="M302.5,279.6v-24.2l-7.8-4.5c-6.1,7-11.5,14.4-16.2,22.2C274.8,288.5,286.3,287.2,302.5,279.6z"/>
	<path class="st6" d="M275.8,391.7l15.1,8.7c3.6,2.1,7.5,3.1,11.5,3.1v-41.7C293.5,372.7,284.6,383,275.8,391.7z"/>
	<path class="st6" d="M189.5,253.5l20.9-48.2c0.4-0.8,0.8-1.5,1.3-2.3l-37.4-21.6c-2,3.4-3.1,7.4-3.1,11.5v53.4
		C174.9,261,179.8,269.5,189.5,253.5z"/>
</g>
<path class="st7" d="M290.3,188.4c-11.1,8.6-21.9,10.5-30.8,13.6c-9.2,3.7-15.6,9.5-19.9,17.1l27.9,16.1c2.5-2.8,4.9-5.7,7.4-8.6
	c7.6-7.2,17.9-12.9,29.3-17.9c7.4-3.3,16.1-5.3,25.3-6.8c23.3-3.6,20.1,13.6,7.5,18.9c-6.7,2.3-12.8,5.1-17.9,8.8
	c-4.2,2.8-8.6,5.9-12.9,9.4c-4.2,3.8-8,7.7-11.6,11.8l7.8,4.5l128.2-74c-2-3.4-4.9-6.4-8.4-8.4l-16.4-9.5L314,110.5
	c-7.1-4.1-15.9-4.1-23,0L182.7,173c-3.6,2.1-6.4,5-8.4,8.4l37.4,21.6C232.1,168.8,315.2,161.3,290.3,188.4z"/>
<path class="st0" d="M433.8,192.9c0-4.1-1.1-8-3-11.4l-128.1,73.9v24.1c19.5-9.2,45.7-27.5,59.7-36.5c8.6-6.5,19.3-1.4,9.9,10.9
	c-9.3,13-20.8,24.7-34.3,35.3c-7.9,6.3-18.6,14.9-29.8,23.8c-16.4,19.6,30.8,9.8,51.7-16.9c8.8-11.4,16-4.8,10.4,6.7
	c-3,6.9-9.7,16.4-17.4,26.6c-4.7,4.8-9.1,8.4-12.9,9.9l-31.8,15.4c-1.9,2.3-3.7,4.5-5.5,6.7v41.9c3.9,0,7.8-1.1,11.3-3.1l108.5-62.5
	c7.1-4.1,11.5-11.7,11.5-20L433.8,192.9z"/>
<linearGradient id="SVGID_3_" gradientUnits="userSpaceOnUse" x1="720.5522" y1="419.9086" x2="646.6375" y2="48.2817" gradientTransform="matrix(0.9913 -0.1316 0.1316 0.9913 -541.9138 123.1668)">
	<stop  offset="0" style="stop-color:#4C9443"/>
	<stop  offset="1" style="stop-color:#0B6A37"/>
</linearGradient>
<path class="st8" d="M205.5,42.8C113.9,79.5-0.6,311.7,123,402.5c43.7,28.8,88.5-20,50.7-66.6C77.4,216.9,111.4,123.7,205.5,42.8z"
	/>
<linearGradient id="SVGID_4_" gradientUnits="userSpaceOnUse" x1="4205.3398" y1="6854.2568" x2="4117.627" y2="6413.2563" gradientTransform="matrix(-0.659 -0.7521 0.7521 -0.659 -1835.5177 7848.7939)">
	<stop  offset="0" style="stop-color:#4C9443"/>
	<stop  offset="1" style="stop-color:#0B6A37"/>
</linearGradient>
<path class="st9" d="M170.8,458.7c93.4,70.6,387.3,29.5,394.9-163.3c-0.5-65.9-75.5-78.9-95.7-7
	C418.2,472.1,307.9,501.2,170.8,458.7z"/>
<path class="st2" d="M173.7,335.9c-1.2-1.5-2.4-3-3.6-4.5l0,0c28.1,27.6-0.2,67.2-34.1,47C49.7,316,91.7,107.5,205.5,42.8l-4.4,1.9
	C110.3,86.9,1.4,313.1,123,402.5C166.7,431.3,211.4,382.5,173.7,335.9z"/>
<g>
	<path class="st10" d="M470.1,288.4c-51.9,183.6-162.1,212.7-299.2,170.2h0c0,0,0,0,0,0c128.6,45.2,253.3,29.5,326.6-165.2
		c17.4-43.2,62.1-54.8,67.7,5.6c-0.2-5.1-0.5-11.4-0.9-18.4C553.7,228,488.7,222.2,470.1,288.4z"/>
	<path class="st10" d="M565.4,301.8c-0.1-0.9-0.1-1.8-0.2-2.7c0.1,1.3,0.1,2.4,0.2,3.6C565.4,302.3,565.4,302.1,565.4,301.8z"/>
</g>
<path class="st2" d="M245.9,44.3c-26.4,23.3-7.9,50.6,11.8,47.7c-6.4-1-18.5-10.9-12.3-29.1c30.6-61.2,139.8-19.9,109.4,65.3
	C387,65.6,312.8-10.1,245.9,44.3z"/>
</svg>
