<?xml version="1.0" encoding="utf-8"?>
<!-- Generator: Adobe Illustrator 23.0.0, SVG Export Plug-In . SVG Version: 6.00 Build 0)  -->
<svg version="1.1" id="Layer_1" xmlns="http://www.w3.org/2000/svg" xmlns:xlink="http://www.w3.org/1999/xlink" x="0px" y="0px"
	 viewBox="0 0 5368.9 1480.4" style="enable-background:new 0 0 5368.9 1480.4;" xml:space="preserve">
<style type="text/css">
	.st0{fill:#FA224B;}
	.st1{fill:#FFFFFF;}
	.st2{fill:url(#SVGID_1_);}
	.st3{opacity:0.7;fill:#9E0035;enable-background:new    ;}
	.st4{fill:#D8D8D8;}
	.st5{fill:#F5F5F5;}
	.st6{fill:#DCDCDC;}
	.st7{fill:url(#SVGID_2_);}
	.st8{fill:url(#SVGID_3_);}
	.st9{fill:url(#SVGID_4_);}
	.st10{opacity:0.62;fill:#9E0035;enable-background:new    ;}
	.st11{fill:#9E0035;}
</style>
<g>
	<g>
		<path class="st0" d="M1996.6,485.8h139.1L2244,908.7h2.4V485.8h98.8v706.7h-113.8l-133.6-516.2h-2.4v516.2h-98.8V485.8
			L1996.6,485.8z"/>
		<path class="st0" d="M2528.6,485.8h150.2l115.4,706.7h-110.7l-20.6-140.7v2.4h-126.5l-20.6,138.3H2413L2528.6,485.8z
			 M2650.4,958.5l-49.8-349.4h-2.4L2550,958.5H2650.4z"/>
		<path class="st0" d="M2903.3,587h-116.2V485.8h343.1V587H3014v605.5h-110.7L2903.3,587L2903.3,587z"/>
		<path class="st0" d="M3199,485.8h110.7v706.7H3199V485.8z"/>
		<path class="st0" d="M3443.2,1156.2c-29.2-30.8-43.5-75.1-43.5-131.2V653.4c0-56.9,14.2-100.4,43.5-131.2
			c29.2-30.8,70.4-46.6,124.9-46.6s96.4,15.8,124.9,46.6c29.2,30.8,43.5,75.1,43.5,131.2v371.5c0,56.9-14.2,100.4-43.5,131.2
			c-29.2,30.8-70.4,46.6-124.9,46.6C3513.6,1202.8,3472.5,1187,3443.2,1156.2z M3626.6,1032V646.3c0-46.6-19-69.6-57.7-69.6
			s-57.7,22.9-57.7,69.6v385.8c0,46.6,19,69.6,57.7,69.6C3606.9,1101.6,3626.6,1078.7,3626.6,1032z"/>
		<path class="st0" d="M3827.4,485.8h139.1l108.3,422.9h2.4V485.8h98.8v706.7h-113.8l-133.6-516.2h-2.4v516.2h-98.8L3827.4,485.8
			L3827.4,485.8z"/>
		<path class="st0" d="M4359.4,485.8h150.2l115.4,706.7h-110.7l-20.6-140.7v2.4h-126.5l-20.6,138.3h-102.8L4359.4,485.8z
			 M4480.4,958.5l-49.8-349.4h-2.4L4380,958.5H4480.4z"/>
		<path class="st0" d="M4693.8,485.8h110.7v605.5h182.6v101.2H4693V485.8H4693.8z"/>
		<path class="st0" d="M5078,1156.9c-27.7-30.8-41.1-74.3-41.1-132v-40.3H5142v48.2c0,45.8,19,68.8,57.7,68.8
			c19,0,33.2-5.5,42.7-16.6s15-29.2,15-53.8c0-29.2-7.1-55.3-20.6-78.3c-13.4-22.9-38.7-49.8-75.1-81.4
			c-45.9-40.3-77.5-76.7-95.7-109.9c-18.2-32.4-26.9-69.6-26.9-110.7c0-56.1,14.2-98.8,42.7-129.6c28.5-30.8,69.6-45.8,123.3-45.8
			c53,0,93.3,15,120.9,45.8c26.9,30.8,41.1,74.3,41.1,132v29.2H5262v-36.4c0-24.5-4.7-41.9-14.2-53s-22.9-16.6-41.1-16.6
			c-37.2,0-55.3,22.9-55.3,68c0,25.3,7.1,49.8,20.6,71.9c13.4,22.1,38.7,49,75.1,80.6c46.6,40.3,78.3,77.5,95.7,109.9
			c17.4,33.2,26.1,71.9,26.1,116.2c0,57.7-14.2,102-42.7,133.6c-28.5,30.8-70.4,46.6-124.9,46.6
			C5146.8,1202.8,5105.7,1187,5078,1156.9z"/>
	</g>
</g>
<polygon class="st1" points="743.7,1202.1 794,1136 743.7,1068.8 703.6,1136 "/>
<polygon class="st1" points="743.7,731 711.3,780.6 743.7,807.7 765.4,769.5 "/>
<path class="st0" d="M1058.7,744.3c113.3-104,160-284.4,158.1-521.1c-13-192.5,234.8-175.3,173.1,86.2
	C1349.8,477.4,1275,634.3,1058.7,744.3z"/>
<linearGradient id="SVGID_1_" gradientUnits="userSpaceOnUse" x1="1059.4642" y1="737.5617" x2="1319.4642" y2="1289.5616" gradientTransform="matrix(1 0 0 -1 0 1518.1853)">
	<stop  offset="0" style="stop-color:#940018"/>
	<stop  offset="1" style="stop-color:#FA224B"/>
</linearGradient>
<path class="st2" d="M1058.7,744.3c113.3-104,160-284.4,158.1-521.1c-13-192.5,234.8-175.3,173.1,86.2
	C1349.8,477.4,1275,634.3,1058.7,744.3z"/>
<path class="st3" d="M1245.7,119.5c62-8.6,133.3,60.4,96.7,214.7c-36.9,154.9-103.1,300-281.9,407.8c-0.6,0.6-1.6,1.6-2.2,2.2
	c216.3-110.1,291.1-266.9,331.2-435.2C1436,111.9,1306.8,53.7,1245.7,119.5z"/>
<path class="st0" d="M909.2,326.6C919.1,103,725.6,70.5,647.4,183.1c-69.7,83-190.2-30.5-84.6-123.8
	C775.9-113.6,1011.9,127.2,909.2,326.6z"/>
<g>
	<path class="st4" d="M543,615.5c-16.5,29.3-23.5,66.5-23.5,109.1c1.3,22.6,13.7,25.5,28.3,19.1c28.3-18.5,56.3-45.8,84-77
		L543,615.5z"/>
	<path class="st4" d="M743.1,808v-77l-24.8-14.3c-19.4,22.3-36.6,45.8-51.5,70.6C655,836.3,691.6,832.2,743.1,808z"/>
	<path class="st4" d="M658.2,1164.6l48,27.7c11.5,6.7,23.9,9.9,36.6,9.9v-132.7C714.5,1104.2,686.1,1136.9,658.2,1164.6z"/>
	<path class="st4" d="M383.6,724.9l66.5-153.3c1.3-2.5,2.5-4.8,4.1-7.3l-119-68.7c-6.4,10.8-9.9,23.5-9.9,36.6v169.9
		C337.2,748.8,352.8,775.8,383.6,724.9z"/>
</g>
<path class="st5" d="M704.3,517.8c-35.3,27.4-69.7,33.4-98,43.3c-29.3,11.8-49.6,30.2-63.3,54.4l88.8,51.2
	c8-8.9,15.6-18.1,23.5-27.4c24.2-22.9,56.9-41,93.2-56.9c23.5-10.5,51.2-16.9,80.5-21.6c74.1-11.5,63.9,43.3,23.9,60.1
	c-21.3,7.3-40.7,16.2-56.9,28c-13.4,8.9-27.4,18.8-41,29.9c-13.4,12.1-25.5,24.5-36.9,37.5l24.8,14.3l407.8-235.4
	c-6.4-10.8-15.6-20.4-26.7-26.7l-52.2-30.2L779.8,270c-22.6-13-50.6-13-73.2,0L362,468.8c-11.5,6.7-20.4,15.9-26.7,26.7l119,68.7
	C519.1,455.5,783.5,431.6,704.3,517.8z"/>
<path class="st6" d="M1160.8,532.2c0-13-3.5-25.5-9.5-36.3L743.8,731v76.7c62-29.3,145.4-87.5,189.9-116.1
	c27.4-20.7,61.4-4.5,31.5,34.7c-29.6,41.4-66.2,78.6-109.1,112.3c-25.1,20-59.2,47.4-94.8,75.7c-52.2,62.4,98,31.2,164.5-53.8
	c28-36.3,50.9-15.3,33.1,21.3c-9.5,22-30.9,52.2-55.4,84.6c-15,15.3-28.9,26.7-41,31.5l-101.2,49c-6,7.3-11.8,14.3-17.5,21.3v133.3
	c12.4,0,24.8-3.5,35.9-9.9l345.2-198.8c22.6-13,36.6-37.2,36.6-63.6L1160.8,532.2z"/>
<path class="st0" d="M434.5,54.6C143.1,171.4-221.2,910.1,172.1,1199c139,91.6,281.5-63.6,161.3-211.9
	C27,608.5,135.2,312,434.5,54.6z"/>
<path class="st0" d="M324.1,1377.7c297.1,224.6,1232.1,93.8,1256.3-519.5c-1.6-209.6-240.2-251-304.4-22.3
	C1111.2,1420.4,760.3,1512.9,324.1,1377.7z"/>
<linearGradient id="SVGID_2_" gradientUnits="userSpaceOnUse" x1="1028.2336" y1="1182.9148" x2="608.2337" y2="1454.9148" gradientTransform="matrix(1 0 0 -1 0 1518.1853)">
	<stop  offset="0" style="stop-color:#940018"/>
	<stop  offset="1" style="stop-color:#FA224B"/>
</linearGradient>
<path class="st7" d="M909.2,326.6C919.1,103,725.6,70.5,647.4,183.1c-69.7,83-190.2-30.5-84.6-123.8
	C775.9-113.6,1011.9,127.2,909.2,326.6z"/>
<linearGradient id="SVGID_3_" gradientUnits="userSpaceOnUse" x1="205.5032" y1="1535.1521" x2="229.5032" y2="591.152" gradientTransform="matrix(1 0 0 -1 0 1518.1853)">
	<stop  offset="0" style="stop-color:#940018"/>
	<stop  offset="1" style="stop-color:#FA224B"/>
</linearGradient>
<path class="st8" d="M434.5,54.6C143.1,171.4-221.2,910.1,172.1,1199c139,91.6,281.5-63.6,161.3-211.9
	C27,608.5,135.2,312,434.5,54.6z"/>
<linearGradient id="SVGID_4_" gradientUnits="userSpaceOnUse" x1="455.0696" y1="97.2764" x2="1635.0697" y2="641.2764" gradientTransform="matrix(1 0 0 -1 0 1518.1853)">
	<stop  offset="0" style="stop-color:#940018"/>
	<stop  offset="1" style="stop-color:#FA224B"/>
</linearGradient>
<path class="st9" d="M324.1,1377.7c297.1,224.6,1232.1,93.8,1256.3-519.5c-1.6-209.6-240.2-251-304.4-22.3
	C1111.2,1420.4,760.3,1512.9,324.1,1377.7z"/>
<path class="st10" d="M333.3,987.1c-3.8-4.8-7.6-9.5-11.5-14.3l0,0c89.4,87.8-0.6,213.8-108.5,149.5
	C-61.1,923.8,72.5,260.5,434.5,54.6l-14,6C131.7,194.9-214.8,914.5,172.1,1199C311.1,1290.6,453.3,1135.3,333.3,987.1z"/>
<g>
	<path class="st10" d="M1276.3,836c-165.1,584.1-515.7,676.7-951.8,541.5l0,0l0,0c409.1,143.8,805.8,93.8,1039-525.5
		c55.4-137.4,197.6-174.3,215.4,17.8c-0.6-16.2-1.6-36.3-2.9-58.5C1542.2,643.8,1335.4,625.4,1276.3,836z"/>
	<path class="st10" d="M1579.4,878.6c-0.3-2.9-0.3-5.7-0.6-8.6c0.3,4.1,0.3,7.6,0.6,11.5C1579.4,880.2,1579.4,879.6,1579.4,878.6z"
		/>
</g>
<path class="st11" d="M563,59.4c-84,74.1-25.1,161,37.5,151.7c-20.4-3.2-58.9-34.7-39.1-92.6c97.3-194.7,444.7-63.3,348,207.7
	C1011.9,127.2,775.9-113.6,563,59.4z"/>
<g>
	<path class="st1" d="M2015.2,142.8v285.1h-21.9V142.8H2015.2L2015.2,142.8z"/>
	<path class="st1" d="M2105.5,427.9V142.8h32.5c44.5,68.4,148.7,227.6,166.6,258.5h0.3c-2.3-41.1-2-83-2-129.4V142.8h22.6v285.1
		h-30.2c-42.5-66-148.3-231.6-168.6-263.1h-0.3c2,37.5,1.7,79,1.7,130.7v132.4L2105.5,427.9L2105.5,427.9z"/>
	<path class="st1" d="M2415.4,142.8h94.6c78.3,0,132.4,54.4,132.4,140c0,85.3-53.1,145-132.7,145h-94.2v-285H2415.4z M2437.3,407.6
		h68.7c75.3,0,112.5-53.1,112.5-123.4c0-62.7-33.5-121.1-112.5-121.1h-68.7V407.6z"/>
	<path class="st1" d="M2733,142.8v285.1h-21.9V142.8H2733L2733,142.8z"/>
	<path class="st1" d="M2849.5,329.3l-36.2,98.6h-22.6l104.5-285.1h26.2l109.2,285.1h-23.9l-37.2-98.6L2849.5,329.3L2849.5,329.3z
		 M2962.3,309.1c-31.9-84.6-48.1-125.4-53.8-144.7h-0.3c-7,21.6-25.2,72-50.8,144.7H2962.3z"/>
	<path class="st1" d="M3087.4,427.9V142.8h32.5c44.5,68.4,148.7,227.6,166.6,258.5h0.3c-2.3-41.1-2-83-2-129.4V142.8h22.6v285.1
		h-30.2c-42.5-66-148.3-231.6-168.6-263.1h-0.3c2,37.5,1.7,79,1.7,130.7v132.4L3087.4,427.9L3087.4,427.9z"/>
</g>
</svg>
